<mxfile host="app.diagrams.net" modified="2024-06-06T15:58:21.727Z" agent="Mozilla/5.0 (Windows NT 10.0; Win64; x64) AppleWebKit/537.36 (KHTML, like Gecko) Chrome/125.0.0.0 Safari/537.36" etag="ujKc8c7UhE8C4u-x7YAM" version="24.4.15" type="device">
  <diagram name="Страница — 1" id="qLNz9jKovM8slKJmPDU5">
    <mxGraphModel dx="1050" dy="522" grid="1" gridSize="10" guides="1" tooltips="1" connect="1" arrows="1" fold="1" page="1" pageScale="1" pageWidth="827" pageHeight="1169" math="0" shadow="0">
      <root>
        <mxCell id="0" />
        <mxCell id="1" parent="0" />
        <mxCell id="vCcyRhlmgQHcbcecpiCQ-13" style="edgeStyle=orthogonalEdgeStyle;rounded=0;orthogonalLoop=1;jettySize=auto;html=1;" parent="1" source="vCcyRhlmgQHcbcecpiCQ-1" target="vCcyRhlmgQHcbcecpiCQ-2" edge="1">
          <mxGeometry relative="1" as="geometry" />
        </mxCell>
        <mxCell id="vCcyRhlmgQHcbcecpiCQ-1" value="&lt;font style=&quot;font-size: 14px;&quot;&gt;true_table(formula)&lt;/font&gt;" style="rounded=1;whiteSpace=wrap;html=1;arcSize=0;strokeWidth=1;" parent="1" vertex="1">
          <mxGeometry x="280" y="40" width="240" height="40" as="geometry" />
        </mxCell>
        <mxCell id="vCcyRhlmgQHcbcecpiCQ-12" style="edgeStyle=orthogonalEdgeStyle;rounded=0;orthogonalLoop=1;jettySize=auto;html=1;entryX=0.5;entryY=0;entryDx=0;entryDy=0;" parent="1" source="vCcyRhlmgQHcbcecpiCQ-2" target="vCcyRhlmgQHcbcecpiCQ-3" edge="1">
          <mxGeometry relative="1" as="geometry" />
        </mxCell>
        <mxCell id="vCcyRhlmgQHcbcecpiCQ-2" value="formula=reversed_polish_notation(formula)" style="shape=process;whiteSpace=wrap;html=1;backgroundOutline=1;fontSize=14;" parent="1" vertex="1">
          <mxGeometry x="210" y="100" width="380" height="40" as="geometry" />
        </mxCell>
        <mxCell id="vCcyRhlmgQHcbcecpiCQ-11" style="edgeStyle=orthogonalEdgeStyle;rounded=0;orthogonalLoop=1;jettySize=auto;html=1;entryX=0.5;entryY=0;entryDx=0;entryDy=0;" parent="1" source="vCcyRhlmgQHcbcecpiCQ-3" target="vCcyRhlmgQHcbcecpiCQ-4" edge="1">
          <mxGeometry relative="1" as="geometry" />
        </mxCell>
        <mxCell id="vCcyRhlmgQHcbcecpiCQ-3" value="variables=sorted(set(re.findall(r&quot;[A-Za-z]&quot;, formula)))" style="rounded=0;whiteSpace=wrap;html=1;fontSize=14;" parent="1" vertex="1">
          <mxGeometry x="240" y="160" width="320" height="40" as="geometry" />
        </mxCell>
        <mxCell id="vCcyRhlmgQHcbcecpiCQ-10" style="edgeStyle=orthogonalEdgeStyle;rounded=0;orthogonalLoop=1;jettySize=auto;html=1;entryX=0.5;entryY=0;entryDx=0;entryDy=0;" parent="1" source="vCcyRhlmgQHcbcecpiCQ-4" target="vCcyRhlmgQHcbcecpiCQ-5" edge="1">
          <mxGeometry relative="1" as="geometry" />
        </mxCell>
        <mxCell id="vCcyRhlmgQHcbcecpiCQ-4" value="table={}" style="rounded=0;whiteSpace=wrap;html=1;fontSize=14;" parent="1" vertex="1">
          <mxGeometry x="340" y="220" width="120" height="40" as="geometry" />
        </mxCell>
        <mxCell id="voekG9R3kApBT81XPAWg-1" style="edgeStyle=orthogonalEdgeStyle;rounded=0;orthogonalLoop=1;jettySize=auto;html=1;exitX=0.5;exitY=1;exitDx=0;exitDy=0;entryX=0.5;entryY=0;entryDx=0;entryDy=0;" edge="1" parent="1" source="vCcyRhlmgQHcbcecpiCQ-5" target="vCcyRhlmgQHcbcecpiCQ-7">
          <mxGeometry relative="1" as="geometry" />
        </mxCell>
        <mxCell id="vCcyRhlmgQHcbcecpiCQ-5" value="&lt;font style=&quot;font-size: 14px;&quot;&gt;i in range(pow(2, len(variables))&lt;/font&gt;" style="shape=loopLimit;whiteSpace=wrap;html=1;fontFamily=Helvetica;fontSize=11;fontColor=default;labelBackgroundColor=default;" parent="1" vertex="1">
          <mxGeometry x="280" y="280" width="240" height="40" as="geometry" />
        </mxCell>
        <mxCell id="vCcyRhlmgQHcbcecpiCQ-9" style="edgeStyle=orthogonalEdgeStyle;rounded=0;orthogonalLoop=1;jettySize=auto;html=1;entryX=0.5;entryY=1;entryDx=0;entryDy=0;" parent="1" source="vCcyRhlmgQHcbcecpiCQ-7" target="vCcyRhlmgQHcbcecpiCQ-8" edge="1">
          <mxGeometry relative="1" as="geometry" />
        </mxCell>
        <mxCell id="vCcyRhlmgQHcbcecpiCQ-7" value="table[i]=list()" style="rounded=0;whiteSpace=wrap;html=1;fontSize=14;" parent="1" vertex="1">
          <mxGeometry x="340" y="340" width="120" height="40" as="geometry" />
        </mxCell>
        <mxCell id="vCcyRhlmgQHcbcecpiCQ-15" style="edgeStyle=orthogonalEdgeStyle;rounded=0;orthogonalLoop=1;jettySize=auto;html=1;entryX=0.5;entryY=0;entryDx=0;entryDy=0;" parent="1" source="vCcyRhlmgQHcbcecpiCQ-8" target="vCcyRhlmgQHcbcecpiCQ-14" edge="1">
          <mxGeometry relative="1" as="geometry" />
        </mxCell>
        <mxCell id="vCcyRhlmgQHcbcecpiCQ-8" value="i in range(pow(2, len(variables))" style="shape=loopLimit;whiteSpace=wrap;html=1;fontFamily=Helvetica;fontSize=14;fontColor=default;labelBackgroundColor=default;direction=west;" parent="1" vertex="1">
          <mxGeometry x="280" y="400" width="240" height="40" as="geometry" />
        </mxCell>
        <mxCell id="vCcyRhlmgQHcbcecpiCQ-17" style="edgeStyle=orthogonalEdgeStyle;rounded=0;orthogonalLoop=1;jettySize=auto;html=1;entryX=0.5;entryY=0;entryDx=0;entryDy=0;" parent="1" source="vCcyRhlmgQHcbcecpiCQ-14" target="vCcyRhlmgQHcbcecpiCQ-16" edge="1">
          <mxGeometry relative="1" as="geometry" />
        </mxCell>
        <mxCell id="vCcyRhlmgQHcbcecpiCQ-14" value="result = ZERO" style="rounded=0;whiteSpace=wrap;html=1;fontSize=14;" parent="1" vertex="1">
          <mxGeometry x="340" y="460" width="120" height="40" as="geometry" />
        </mxCell>
        <mxCell id="vCcyRhlmgQHcbcecpiCQ-21" style="edgeStyle=orthogonalEdgeStyle;rounded=0;orthogonalLoop=1;jettySize=auto;html=1;entryX=0.5;entryY=0;entryDx=0;entryDy=0;" parent="1" source="vCcyRhlmgQHcbcecpiCQ-16" target="vCcyRhlmgQHcbcecpiCQ-20" edge="1">
          <mxGeometry relative="1" as="geometry" />
        </mxCell>
        <mxCell id="vCcyRhlmgQHcbcecpiCQ-16" value="&lt;font style=&quot;font-size: 14px;&quot;&gt;i in range(len(table))&lt;/font&gt;" style="shape=loopLimit;whiteSpace=wrap;html=1;fontFamily=Helvetica;fontSize=11;fontColor=default;labelBackgroundColor=default;" parent="1" vertex="1">
          <mxGeometry x="280" y="520" width="240" height="40" as="geometry" />
        </mxCell>
        <mxCell id="vCcyRhlmgQHcbcecpiCQ-23" style="edgeStyle=orthogonalEdgeStyle;rounded=0;orthogonalLoop=1;jettySize=auto;html=1;entryX=0.5;entryY=0;entryDx=0;entryDy=0;" parent="1" source="vCcyRhlmgQHcbcecpiCQ-18" target="vCcyRhlmgQHcbcecpiCQ-19" edge="1">
          <mxGeometry relative="1" as="geometry" />
        </mxCell>
        <mxCell id="vCcyRhlmgQHcbcecpiCQ-18" value="table[i].append(find_result(table[i], formula))" style="shape=process;whiteSpace=wrap;html=1;backgroundOutline=1;fontSize=14;" parent="1" vertex="1">
          <mxGeometry x="250" y="640" width="300" height="40" as="geometry" />
        </mxCell>
        <mxCell id="vCcyRhlmgQHcbcecpiCQ-25" style="edgeStyle=orthogonalEdgeStyle;rounded=0;orthogonalLoop=1;jettySize=auto;html=1;entryX=0.5;entryY=1;entryDx=0;entryDy=0;" parent="1" source="vCcyRhlmgQHcbcecpiCQ-19" target="vCcyRhlmgQHcbcecpiCQ-24" edge="1">
          <mxGeometry relative="1" as="geometry" />
        </mxCell>
        <mxCell id="vCcyRhlmgQHcbcecpiCQ-19" value="result = interval(result, ONE)" style="shape=process;whiteSpace=wrap;html=1;backgroundOutline=1;fontSize=14;" parent="1" vertex="1">
          <mxGeometry x="250" y="700" width="300" height="40" as="geometry" />
        </mxCell>
        <mxCell id="vCcyRhlmgQHcbcecpiCQ-22" style="edgeStyle=orthogonalEdgeStyle;rounded=0;orthogonalLoop=1;jettySize=auto;html=1;entryX=0.5;entryY=0;entryDx=0;entryDy=0;" parent="1" source="vCcyRhlmgQHcbcecpiCQ-20" target="vCcyRhlmgQHcbcecpiCQ-18" edge="1">
          <mxGeometry relative="1" as="geometry" />
        </mxCell>
        <mxCell id="vCcyRhlmgQHcbcecpiCQ-20" value="table[i].extend(result[-len(variables):])" style="rounded=0;whiteSpace=wrap;html=1;fontSize=14;" parent="1" vertex="1">
          <mxGeometry x="280" y="580" width="240" height="40" as="geometry" />
        </mxCell>
        <mxCell id="voekG9R3kApBT81XPAWg-2" style="edgeStyle=orthogonalEdgeStyle;rounded=0;orthogonalLoop=1;jettySize=auto;html=1;exitX=0.5;exitY=0;exitDx=0;exitDy=0;entryX=0.5;entryY=0;entryDx=0;entryDy=0;" edge="1" parent="1" source="vCcyRhlmgQHcbcecpiCQ-24" target="vCcyRhlmgQHcbcecpiCQ-27">
          <mxGeometry relative="1" as="geometry" />
        </mxCell>
        <mxCell id="vCcyRhlmgQHcbcecpiCQ-24" value="i in range(len(table))" style="shape=loopLimit;whiteSpace=wrap;html=1;fontFamily=Helvetica;fontSize=14;fontColor=default;labelBackgroundColor=default;direction=west;" parent="1" vertex="1">
          <mxGeometry x="280" y="760" width="240" height="40" as="geometry" />
        </mxCell>
        <mxCell id="vCcyRhlmgQHcbcecpiCQ-27" value="&lt;font style=&quot;font-size: 14px;&quot;&gt;return table, variables&lt;/font&gt;" style="rounded=1;whiteSpace=wrap;html=1;arcSize=0;strokeWidth=1;" parent="1" vertex="1">
          <mxGeometry x="280" y="820" width="240" height="40" as="geometry" />
        </mxCell>
      </root>
    </mxGraphModel>
  </diagram>
</mxfile>
